Coordinates
version=1
nRows=13
nColumns=34
inDegrees=yes

Units are S.I. units (second, meters, Newtons, ...)
If the header above contains a line with 'inDegrees', this indicates whether rotational values are in degrees (yes) or radians (no).

endheader
time	pelvis_tilt	pelvis_list	pelvis_rotation	pelvis_tx	pelvis_ty	pelvis_tz	hip_flexion_r	hip_adduction_r	hip_rotation_r	knee_angle_r	ankle_angle_r	subtalar_angle_r	mtp_angle_r	hip_flexion_l	hip_adduction_l	hip_rotation_l	knee_angle_l	ankle_angle_l	subtalar_angle_l	mtp_angle_l	lumbar_extension	lumbar_bending	lumbar_rotation	arm_flex_r	arm_add_r	arm_rot_r	elbow_flex_r	pro_sup_r	arm_flex_l	arm_add_l	arm_rot_l	elbow_flex_l	pro_sup_l
      2.93333330	    -12.19962631	      0.77350994	     -3.28100849	      0.61098645	      0.71150066	     -0.03879551	     63.09649156	      2.82769754	     -0.48727875	     84.65618336	     41.96391246	     -9.94297532	      0.00000000	     64.34760893	     -4.94486562	     -0.46817755	     87.05317563	     47.33242306	     -5.51658508	      0.00000000	    -25.48863644	      0.78915877	      9.15091224	     51.38301046	    -31.13580672	     22.87378756	     37.25302285	     76.27144903	     53.56379464	    -22.39557427	     32.23119265	     28.43082349	     52.97367606
      2.95000000	    -13.96530789	      0.62261631	     -3.35862865	      0.61690386	      0.71632115	     -0.03915328	     64.27149481	      3.56957740	     -0.10880881	     83.51245816	     41.53895254	    -11.15633001	      0.00000000	     65.77054908	     -4.84511988	     -0.04788254	     86.32677743	     46.06731383	     -7.08864476	      0.00000000	    -24.12375822	      1.13073507	      9.64124831	     56.07948203	    -32.96058615	     23.71466363	     37.66318375	     76.09178251	     56.47940326	    -23.83581578	     32.92927279	     27.54678679	     53.39879812
      2.96666670	    -15.60304107	      0.66553847	     -3.19947365	      0.61847589	      0.72320264	     -0.03800937	     64.98578686	      4.19986627	      0.42279030	     81.62056186	     40.32789291	    -12.60133682	      0.00000000	     66.28618511	     -4.41522527	      0.17666833	     84.20712848	     45.38517820	     -7.58869705	      0.00000000	    -22.55862791	      1.33320486	     10.14155458	     61.37500163	    -35.47495800	     27.63295615	     36.34744292	     75.47742707	     61.05242118	    -25.27637899	     37.00138446	     24.76429508	     54.95707496
      2.98333330	    -17.20736654	      0.93480729	     -2.49906660	      0.62162475	      0.73131136	     -0.03631549	     65.79017619	      4.26335715	      0.95702751	     79.77748885	     37.83137526	    -14.80753355	      0.00000000	     66.27406171	     -3.33810390	      0.54464282	     81.50988828	     44.74145305	     -7.85620838	      0.00000000	    -21.09176381	      1.19628203	     10.33224758	     65.97008874	    -38.64181986	     29.90320095	     35.85316569	     74.07491280	     67.29701703	    -26.45850643	     40.97455256	     21.86922209	     55.97788015
      3.00000000	    -17.86151669	      1.60787015	     -1.98070452	      0.63821922	      0.74168480	     -0.03426778	     64.89559945	      4.20961205	      2.17452337	     77.72862672	     36.24863172	    -16.45175431	      0.00000000	     64.02122876	     -2.38678970	      0.44802177	     77.81062787	     44.70311038	     -7.51842743	      0.00000000	    -19.58050670	      0.64366399	      9.92022977	     67.79720072	    -40.97443251	     29.74308837	     35.47955657	     73.69216566	     71.54078834	    -28.56321822	     41.45125735	     20.91881618	     56.06569082
      3.01666670	    -19.10485076	      1.80011937	     -1.41062448	      0.64817393	      0.75014912	     -0.03423896	     63.95949144	      4.17026119	      2.62705427	     75.43091191	     33.07948982	    -19.79463723	      0.00000000	     62.50921064	     -1.74976205	      0.67185847	     74.46021012	     45.15981376	     -6.39821679	      0.00000000	    -17.13715363	      0.44043221	      9.58879166	     68.66233331	    -44.37243795	     30.88668126	     35.79800937	     72.73004429	     76.75911081	    -30.23678547	     46.75160661	     18.25254531	     57.19426324
      3.03333330	    -19.87102010	      2.56283901	     -0.89678115	      0.64605706	      0.76056651	     -0.03361631	     62.97637958	      3.62472666	      3.47220818	     73.18469231	     32.20969547	    -20.45030299	      0.00000000	     60.98313508	     -0.91956920	      0.10330336	     71.31827194	     44.73744094	     -5.95068647	      0.00000000	    -15.05703777	     -0.36576190	      8.33276315	     70.06503871	    -46.43680930	     31.08519225	     36.25906187	     72.59838793	     81.17140322	    -32.92751875	     47.39474721	     17.37739824	     57.30539672
      3.05000000	    -21.07627456	      2.11915627	     -0.51551565	      0.65216519	      0.77433930	     -0.03103496	     62.05639458	      3.99207639	      3.41675449	     69.66901652	     29.35382624	    -22.67465013	      0.00000000	     59.91402336	     -1.05026030	      0.61980243	     68.05168714	     44.17425949	     -5.01977883	      0.00000000	    -12.60708077	     -0.11588106	      8.28150462	     72.39868681	    -49.85751948	     36.20534381	     35.44097609	     71.72118890	     86.77949079	    -34.63234420	     58.00865051	     14.40904808	     59.27725096
      3.06666670	    -21.82128585	      1.95225925	     -0.30911217	      0.66811139	      0.79190535	     -0.03231585	     59.87382404	      4.10769389	      3.73059746	     65.41185602	     26.80283716	    -23.83822686	      0.00000000	     58.03435634	     -1.18313619	      0.42970503	     63.70487563	     42.57145098	     -4.61580076	      0.00000000	     -9.85674316	     -0.00170996	      7.50546089	     72.37658497	    -52.00778780	     37.20402083	     34.86809802	     70.32405200	     89.32320136	    -37.69215751	     62.35359312	     13.24731607	     59.07937887
      3.08333330	    -22.01101598	      1.43024369	      0.28979828	      0.67109191	      0.81568347	     -0.03102607	     57.01991913	      3.97093988	      3.53031225	     60.38203855	     23.94440231	    -24.67753958	      0.00000000	     55.10482028	     -1.39820875	      0.44528545	     58.90118718	     40.56280309	     -3.73821362	      0.00000000	     -8.00661383	      0.41689849	      5.79402981	     73.72371072	    -53.05545424	     39.47968216	     33.22510517	     69.48107650	     93.12617798	    -39.42836986	     69.77533560	      9.03084933	     60.10245068
      3.10000000	    -21.25787758	      0.88729799	      0.52125452	      0.68229784	      0.84093127	     -0.02956849	     52.25750996	      4.04403269	      3.24431071	     53.94295750	     21.82815794	    -23.27821997	      0.00000000	     51.11140476	     -1.84485387	      0.54109865	     53.46096250	     36.57530787	     -4.35866169	      0.00000000	     -6.54041438	      0.84934049	      3.87472976	     71.80852991	    -54.31285136	     40.26605434	     32.52478067	     69.17240174	     94.99032282	    -42.31306298	     72.41090241	      7.74381089	     60.59017725
      3.11666670	    -20.30753982	      0.53506135	      1.07395349	      0.70234513	      0.87158105	     -0.02817956	     46.50495623	      3.64257487	      2.45680843	     46.20619315	     16.15901987	    -23.62124404	      0.00000000	     45.71994794	     -2.38984827	     -0.40234580	     46.68232794	     31.98813962	     -2.64253834	      0.00000000	     -4.52612081	      1.07723029	      1.82158107	     69.28684602	    -54.90009587	     41.08858603	     32.38749234	     67.94216825	     95.09352501	    -45.46487838	     81.66677818	      6.64583580	     62.82183685
      3.13333330	    -18.28724266	     -0.09578370	      1.59714880	      0.71242471	      0.89937679	     -0.02806306	     39.45067502	      3.44023164	      1.01226796	     38.29128177	     12.79416545	    -20.54331830	      0.00000000	     38.99341992	     -3.09794534	     -1.24863469	     39.67666815	     27.32863606	     -1.84862623	      0.00000000	     -3.27341340	      2.00037186	      0.68180845	     66.92492934	    -56.26813942	     41.92027201	     31.40958295	     67.83305438	     93.19159848	    -47.23438168	     83.17234415	      5.78749955	     63.11677561
